# Blender v3.0.0 OBJ File: ''
# www.blender.org
mtllib plane.mtl
o Plane
v 12.000000 0.000001 -12.000000
v -12.000000 0.000001 -12.000000
v 12.000001 -0.000001 12.000000
v -12.000000 -0.000001 12.000000
v 12.000001 0.000002 -36.000000
v -12.000000 0.000002 -36.000000
v 36.000000 0.000001 -12.000000
v 12.000001 -0.000002 36.000000
v -12.000000 -0.000002 36.000000
v 36.000000 -0.000001 12.000000
v 36.000000 0.000002 -36.000000
v 36.000000 -0.000002 36.000000
v -36.000000 0.000001 -12.000000
v -36.000000 -0.000001 12.000000
v -36.000000 0.000002 -36.000000
v -36.000000 -0.000002 36.000000
vt 0.000000 0.000000
vt 0.000000 0.000000
vt 0.000000 0.000000
vt 0.000000 0.000000
vt 0.000000 0.000000
vt 0.000000 0.000000
vt 0.000000 0.000000
vt 0.000000 0.000000
vt 0.000000 0.000000
vt 0.000000 0.000000
vt 0.000000 0.000000
vt 0.000000 0.000000
vt 0.000000 0.000000
vt 0.000000 0.000000
vt 0.000000 0.000000
vt 0.000000 0.000000
vn 0.0000 1.0000 0.0000
usemtl Material.001
s 1
f 1/1/1 2/2/1 3/3/1
f 2/2/1 4/4/1 3/3/1
f 5/5/1 6/6/1 1/1/1
f 6/6/1 2/2/1 1/1/1
f 3/3/1 4/4/1 8/7/1
f 4/4/1 9/8/1 8/7/1
f 7/9/1 1/1/1 10/10/1
f 1/1/1 3/3/1 10/10/1
f 11/11/1 5/5/1 7/9/1
f 5/5/1 1/1/1 7/9/1
f 10/10/1 3/3/1 12/12/1
f 3/3/1 8/7/1 12/12/1
f 2/2/1 13/13/1 4/4/1
f 13/13/1 14/14/1 4/4/1
f 6/6/1 15/15/1 2/2/1
f 15/15/1 13/13/1 2/2/1
f 4/4/1 14/14/1 9/8/1
f 14/14/1 16/16/1 9/8/1
